<svg width="56" height="56" viewBox="0 0 56 56" fill="none" xmlns="http://www.w3.org/2000/svg">
<path d="M42.952 9.688C42.2875 9.688 41.6378 9.88506 41.0853 10.2543C40.5327 10.6235 40.1021 11.1482 39.8478 11.7622C39.5935 12.3761 39.5269 13.0517 39.6566 13.7035C39.7862 14.3553 40.1062 14.954 40.5761 15.4239C41.046 15.8938 41.6447 16.2138 42.2965 16.3434C42.9483 16.4731 43.6239 16.4065 44.2378 16.1522C44.8518 15.8979 45.3765 15.4673 45.7457 14.9147C46.1149 14.3622 46.312 13.7125 46.312 13.048C46.312 12.1569 45.958 11.3022 45.3279 10.6721C44.6978 10.042 43.8431 9.688 42.952 9.688ZM55.832 16.464C55.7775 14.1408 55.3424 11.8423 54.544 9.66C53.832 7.79277 52.724 6.10198 51.296 4.704C49.9095 3.26879 48.2148 2.16769 46.34 1.484C44.1634 0.66125 41.8624 0.216188 39.536 0.168C36.568 -1.56462e-07 35.616 0 28 0C20.384 0 19.432 -1.56462e-07 16.464 0.168C14.1376 0.216188 11.8366 0.66125 9.66 1.484C7.78869 2.17462 6.09541 3.27477 4.704 4.704C3.26879 6.0905 2.16769 7.78523 1.484 9.66C0.66125 11.8366 0.216188 14.1376 0.168 16.464C-1.56462e-07 19.432 0 20.384 0 28C0 35.616 -1.56462e-07 36.568 0.168 39.536C0.216188 41.8624 0.66125 44.1634 1.484 46.34C2.16769 48.2148 3.26879 49.9095 4.704 51.296C6.09541 52.7252 7.78869 53.8254 9.66 54.516C11.8366 55.3387 14.1376 55.7838 16.464 55.832C19.432 56 20.384 56 28 56C35.616 56 36.568 56 39.536 55.832C41.8624 55.7838 44.1634 55.3387 46.34 54.516C48.2148 53.8323 49.9095 52.7312 51.296 51.296C52.7303 49.9032 53.8393 48.2109 54.544 46.34C55.3424 44.1577 55.7775 41.8592 55.832 39.536C55.832 36.568 56 35.616 56 28C56 20.384 56 19.432 55.832 16.464ZM50.792 39.2C50.7716 40.9774 50.4497 42.7384 49.84 44.408C49.3929 45.6265 48.6749 46.7276 47.74 47.628C46.8318 48.5534 45.733 49.27 44.52 49.728C42.8504 50.3377 41.0894 50.6596 39.312 50.68C36.512 50.82 35.476 50.848 28.112 50.848C20.748 50.848 19.712 50.848 16.912 50.68C15.0665 50.7146 13.2289 50.4304 11.48 49.84C10.3202 49.3586 9.2718 48.6438 8.4 47.74C7.47065 46.8405 6.76156 45.7385 6.328 44.52C5.6444 42.8264 5.26524 41.0254 5.208 39.2C5.208 36.4 5.04 35.364 5.04 28C5.04 20.636 5.04 19.6 5.208 16.8C5.22055 14.983 5.55226 13.1822 6.188 11.48C6.68093 10.2982 7.43754 9.24464 8.4 8.4C9.25068 7.43727 10.302 6.67267 11.48 6.16C13.1867 5.54412 14.9856 5.22222 16.8 5.208C19.6 5.208 20.636 5.04 28 5.04C35.364 5.04 36.4 5.04 39.2 5.208C40.9774 5.22839 42.7384 5.55029 44.408 6.16C45.6804 6.63223 46.8224 7.39997 47.74 8.4C48.6576 9.2601 49.3745 10.3117 49.84 11.48C50.4623 13.185 50.7844 14.985 50.792 16.8C50.932 19.6 50.96 20.636 50.96 28C50.96 35.364 50.932 36.4 50.792 39.2ZM28 13.636C25.1603 13.6415 22.3859 14.4887 20.0274 16.0704C17.669 17.6521 15.8323 19.8973 14.7494 22.5225C13.6665 25.1477 13.386 28.0349 13.9434 30.8194C14.5008 33.6039 15.8711 36.1607 17.881 38.1667C19.891 40.1728 22.4504 41.538 25.236 42.09C28.0216 42.642 30.9083 42.3559 33.5313 41.2679C36.1544 40.1799 38.3961 38.3388 39.9732 35.9773C41.5503 33.6158 42.392 30.8397 42.392 28C42.3957 26.1103 42.0258 24.2385 41.3035 22.4923C40.5812 20.7461 39.5208 19.1599 38.1832 17.8249C36.8457 16.49 35.2575 15.4327 33.5098 14.7138C31.7622 13.9949 29.8897 13.6286 28 13.636ZM28 37.324C26.1559 37.324 24.3532 36.7772 22.8199 35.7526C21.2865 34.7281 20.0915 33.2719 19.3857 31.5681C18.68 29.8644 18.4954 27.9897 18.8552 26.181C19.2149 24.3723 20.103 22.7109 21.4069 21.4069C22.7109 20.103 24.3723 19.2149 26.181 18.8552C27.9897 18.4954 29.8644 18.68 31.5681 19.3857C33.2719 20.0915 34.7281 21.2865 35.7526 22.8199C36.7772 24.3532 37.324 26.1559 37.324 28C37.324 29.2244 37.0828 30.4369 36.6143 31.5681C36.1457 32.6994 35.4589 33.7272 34.5931 34.5931C33.7272 35.4589 32.6994 36.1457 31.5681 36.6143C30.4369 37.0828 29.2244 37.324 28 37.324Z" fill="white"/>
</svg>
